<svg width="800" height="600" xmlns="http://www.w3.org/2000/svg">

 <g>
  <title>Layer 1</title>
  <path stroke-width="6" d="m213.00056,163.01561c0,-1 1.07613,-0.61731 2,-1c1.30656,-0.5412 3.03067,-0.91231 6,-2c5.05659,-1.85226 9,-3 16,-5c7,-2 15.90755,-3.53627 26.00002,-5c10.931,-1.58534 21.06238,-2.42113 32.99997,-4c11.0838,-1.46596 22,-3 34,-4c12,-1 23.99429,-2.07101 36,-3c13.99384,-1.08282 25.96597,-1.49948 37,-2c10.98871,-0.49846 21,-1 32,-1c10,0 22.00958,-0.4989 35,0c13.02881,0.50037 26.99731,2.03552 40,3c13.99719,1.03825 28.05688,1.42671 41,3c12.07666,1.46796 22.96881,3.49957 35,4c8.99225,0.37402 16.93799,1.49829 23,2c5.97955,0.49489 9.90778,1.49623 14,2c3.97003,0.48874 5.82373,1.48625 8,2c1.94647,0.4595 3.85272,1.1731 5,2c1.81396,1.30745 3.29291,1.29289 4,2c0.70709,0.70711 0.61731,1.07613 1,2c0.5412,1.30656 2,1 3,2c1,1 1.47424,3.14935 2,4c1.1756,1.90211 3,2 4,4c1,2 1.54047,3.0535 2,5c0.51373,2.17625 1.77026,4.02675 2,5c0.51373,2.17625 1.54047,4.0535 2,6c0.51373,2.17625 0.78986,4.07843 2,7c0.85571,2.06586 1,5 2,8c1,3 1.49347,5.87856 2,9c0.48053,2.96126 -0.43048,5.133 1,9c0.77582,2.09717 1,5 1,8c0,2 -1,4 -1,7c0,2 -0.35925,5.05165 -1,9c-0.50653,3.12144 -1.49622,6.90779 -2,11c-0.48871,3.97002 -0.78986,9.07841 -2,11.99998c-1.71143,4.13171 -3.71411,7.21167 -6,10c-1.79321,2.18735 -5,5 -7,7c-3,3 -5.21167,4.71411 -8,7c-3.28101,2.68979 -6,5 -9,7c-3,2 -5.76111,3.41589 -9,5c-2.8407,1.38934 -6.02997,1.51126 -10,2c-4.09222,0.50378 -7.05164,1.35928 -11,2c-3.12146,0.50653 -7.02997,1.51126 -11,2c-4.09222,0.50378 -7.92578,1.49756 -13,2c-4.97565,0.49268 -10,1 -15,1c-5,0 -11,1 -17,1c-6,0 -12,0 -17,0c-6,0 -12,0 -18,0c-7,0 -12.94672,0.49875 -20,1c-4.98743,0.35443 -9.92578,0.49756 -15,1c-3.98053,0.39417 -7.90778,0.49622 -12,1c-2.97751,0.36655 -7,0 -10,0c-3,0 -6,0 -10,0c-5,0 -9,0 -13,0c-4,0 -8,0 -13,0c-4,0 -7,0 -11,0c-3,0 -6,-1 -9,-1c-2,0 -5,0 -8,0c-3,0 -5.90778,-0.49622 -10,-1c-3.97003,-0.48874 -8.92578,-0.49756 -14,-1c-6.96594,-0.68976 -13,-1 -20,-1c-6,0 -11,-1 -16,-1c-3,0 -6,0 -9,0c-1,0 -2,0 -3,0c-1,0 -1.82376,0.48627 -4,1c-1.9465,0.4595 -3.82376,1.48627 -6,2c-2.91974,0.68927 -5.87857,1.49347 -9,2c-2.96127,0.48056 -5.0535,0.5405 -7,1c-2.17624,0.51373 -3.99997,2 -4.99997,2c-1,0 -2.02676,0.77023 -3,1c-2.17624,0.51373 -3.15225,0.23462 -5,1c-1.30655,0.5412 -3,2 -5,3c-2,1 -5.186,1.69254 -7,3c-1.14728,0.8269 -3.15225,1.23462 -5,2c-1.30655,0.5412 -2.15224,1.23462 -4.00002,2c-1.30656,0.5412 -2.82375,2.48627 -5,3c-1.9465,0.4595 -5,2 -7,3c-2,1 -5.186,1.69254 -7,3c-2.29454,1.65381 -3.38687,2.9176 -6,4c-1.84776,0.76538 -3.07843,0.78986 -6,2c-2.06586,0.85571 -3.85274,2.1731 -5,3c-1.814,1.30746 -3.82443,1.0979 -5,3c-0.52573,0.85065 -2.07613,1.61731 -3,2c-1.30656,0.5412 -2.29289,0.29291 -3,1c-0.70711,0.70709 -1.29289,0.29291 -2,1c-0.70711,0.70709 0,0 0,-1c0,-1 1,-2 1,-3c0,-1 0.29289,-1.29291 1,-2c0.70711,-0.70709 0.29289,-1.29291 1,-2c0.70711,-0.70709 0.29289,-1.29291 1,-2c0.70711,-0.70709 0.29289,-2.29291 1,-3c0.70711,-0.70709 2,-2 3,-3c1,-1 2,-3 3,-5c1,-2 1.69255,-3.186 3,-5c0.8269,-1.14728 1.69255,-2.186 3,-4c0.8269,-1.14728 2.1731,-1.85272 3,-3c1.30745,-1.814 2.186,-2.69254 4,-4c1.14726,-0.8269 3.41885,-2.41885 5,-4c1.58115,-1.58115 2.41885,-3.41885 4,-5c1.58115,-1.58115 3,-2 4,-3c1,-1 2,-2 3,-3c1,-1 2,-2 3,-3c1,-1 1.29289,-1.29291 2,-2c0.70711,-0.70709 -1,-1 -2,-1c-1,0 -4,1 -5,1c-3,0 -4.82375,0.48627 -7,1c-0.97325,0.22977 -3.08025,-0.68927 -6,0c-2.17625,0.51373 -4.0535,0.5405 -6,1c-2.17625,0.51373 -5,1 -7,1c-2,0 -4,1 -5,1c-2,0 -3.90779,0.49622 -8,1c-1.98502,0.24435 -6,1 -9,1c-3,0 -6.05165,-0.64072 -10,0c-3.12144,0.50653 -6,1 -8,1c-3,0 -5,0 -7,0c-2,0 -4,0 -6,0c-2,0 -4,0 -5,0c-2.99998,0 -4.99998,0 -6.99998,0c-3,0 -6.03874,0.48056 -9,0c-3.12144,-0.50653 -6.02582,-0.67963 -8,-1c-3.12144,-0.50653 -5,-2 -7,-2c-1.00001,0 -3.02676,-0.77023 -4.00001,-1c-2.17625,-0.51373 -3.07612,-0.61731 -4,-1c-1.30656,-0.5412 -2.69344,-2.4588 -4,-3c-0.92388,-0.38269 -2,-1 -3,-2c-1,-1 -2,-2 -3,-3c-1,-1 -2,-2 -4,-4c-1,-1 -2.1731,-2.85272 -3,-4c-1.30745,-1.814 -2,-4 -3,-6c-1,-2 -1.69255,-4.186 -3,-6c-0.8269,-1.14728 -1,-3 -2,-5c-1,-2 -1.48626,-2.82376 -2,-5c-0.22975,-0.97324 -0.4588,-1.69345 -0.99999,-3c-0.76536,-1.84775 0,-2.99998 0,-3.99998c0,-2 0,-4 0,-6c0,-3 0,-6 0,-9c0,-3 0,-6 0.99999,-8c1,-2 1.19028,-3.88152 3,-7c1.12234,-1.93399 2.1034,-3.90633 3,-5c2.28588,-2.78833 4.20681,-4.81265 6,-7c2.28588,-2.78833 5,-6 8,-9c3,-3 6.45049,-4.45049 9,-7c2.54951,-2.54951 5.186,-4.69255 7.00001,-6c2.29454,-1.65381 4,-3 5,-4c2,-2 4.0535,-2.5405 6,-3c2.17625,-0.51375 4,-2 6,-3c2,-1 3.80565,-2.44841 8,-4c3.86699,-1.4305 6.99998,-3 10.99998,-4c4,-1 7.87856,-2.49345 11,-3c2.96126,-0.48055 5.07613,-0.61731 6,-1c1.30656,-0.5412 3,-1 5,-1c1,0 3,-1 4,-1c1,0 2.07613,0.38269 3,0c1.30656,-0.5412 2,-1 3,-1c1,0 2,-1 3,-1c1,0 2.29289,0.70711 3,0c0.70711,-0.70711 1,-1 2,-1c1,0 1.69344,-0.4588 3,-1c0.92387,-0.38269 2.29289,0.70711 3,0c0.70711,-0.70711 1.07613,-0.61731 2,-1c1.30656,-0.5412 1.69344,-1.4588 3,-2c0.92387,-0.38269 1.29289,-0.29289 2,-1c0.70711,-0.70711 2,0 3,0l0,-1l1,0l1,0" id="svg_2" stroke="#000" fill="none"/>
 </g>
</svg>