<svg width="100%" viewBox="0 0 680 160" role="img" xmlns="http://www.w3.org/2000/svg">
  <title style="fill:rgb(0, 0, 0);stroke:none;color:rgb(255, 255, 255);stroke-width:1px;stroke-linecap:butt;stroke-linejoin:miter;opacity:1;font-family:&quot;Anthropic Sans&quot;, -apple-system, BlinkMacSystemFont, &quot;Segoe UI&quot;, sans-serif;font-size:16px;font-weight:400;text-anchor:start;dominant-baseline:auto">Hand-drawn speech bubble border</title>
  <desc style="fill:rgb(0, 0, 0);stroke:none;color:rgb(255, 255, 255);stroke-width:1px;stroke-linecap:butt;stroke-linejoin:miter;opacity:1;font-family:&quot;Anthropic Sans&quot;, -apple-system, BlinkMacSystemFont, &quot;Segoe UI&quot;, sans-serif;font-size:16px;font-weight:400;text-anchor:start;dominant-baseline:auto">A wobbly hand-drawn style speech bubble with a tail at the bottom right</desc>
  

  <!-- Hand-drawn speech bubble: wide rounded rect with tail bottom-right -->
  <path d="&#10;    M 60,28&#10;    C 59,26 61,24 64,23&#10;    Q 80,20 120,19&#10;    C 200,17.5 340,17 480,18&#10;    Q 580,19 608,22&#10;    C 617,23 620,26 621,30&#10;    L 622,95&#10;    C 622,98 622,100 621,102&#10;    C 619,107 614,109 607,110&#10;    Q 560,112 480,112&#10;    C 400,113 300,113 200,112&#10;    Q 140,112 105,111&#10;    L 95,111&#10;    L 97,123&#10;    C 97.5,128 95,131 91,128&#10;    L 80,113&#10;    Q 70,112 64,111&#10;    C 57,110 58,107 58,103&#10;    L 57,60&#10;    C 57,50 58,38 60,28&#10;    Z&#10;  " style="fill:none;stroke:rgb(250, 249, 245);color:rgb(255, 255, 255);stroke-width:2.2px;stroke-linecap:round;stroke-linejoin:round;opacity:1;font-family:&quot;Anthropic Sans&quot;, -apple-system, BlinkMacSystemFont, &quot;Segoe UI&quot;, sans-serif;font-size:16px;font-weight:400;text-anchor:start;dominant-baseline:auto"/>
</svg>